<svg xmlns="http://www.w3.org/2000/svg" width="420" height="180" viewBox="0 0 420 180">
  <rect width="420" height="180" fill="none"/>
  <g transform="translate(52 48)">
    <path d="M0 28 L14 16 H92 L110 0 L152 28 L110 56 L92 40 H14 Z" fill="#f8fafc" stroke="#cbd5e1" stroke-width="3"/>
    <path d="M-2 14 L16 28 L-2 42 Z" fill="#ef4444" stroke="#991b1b" stroke-width="2"/>
    <path d="M-2 2 L20 16 L-2 30 Z" fill="#fb7185" stroke="#991b1b" stroke-width="2"/>
    <circle cx="104" cy="28" r="10" fill="#60a5fa" stroke="#1e3a8a" stroke-width="3"/>
    <path d="M158 28 C176 18 184 22 190 28 C184 34 176 38 158 28Z" fill="#fb923c" stroke="#ea580c" stroke-width="2"/>
    <path d="M106 8 L122 28 L106 48" fill="none" stroke="#bfdbfe" stroke-width="5" stroke-linecap="round" stroke-linejoin="round" opacity="0.85"/>
    <path d="M18 13 L28 13" stroke="#94a3b8" stroke-width="4" stroke-linecap="round"/>
    <path d="M18 43 L28 43" stroke="#94a3b8" stroke-width="4" stroke-linecap="round"/>
  </g>
</svg>