<svg xmlns="http://www.w3.org/2000/svg" width="512" height="512" viewBox="0 0 512 512" role="img" aria-labelledby="title desc">
  <title id="title">Weekaroo logo mark</title>
  <desc id="desc">A rounded calendar badge with a kangaroo silhouette and a seven day week trail.</desc>
  <defs>
    <linearGradient id="bg" x1="96" y1="64" x2="416" y2="448" gradientUnits="userSpaceOnUse">
      <stop offset="0" stop-color="#38bdf8"/>
      <stop offset="0.52" stop-color="#2563eb"/>
      <stop offset="1" stop-color="#7c3aed"/>
    </linearGradient>
    <linearGradient id="warm" x1="178" y1="136" x2="376" y2="380" gradientUnits="userSpaceOnUse">
      <stop offset="0" stop-color="#fbbf24"/>
      <stop offset="1" stop-color="#f97316"/>
    </linearGradient>
    <filter id="shadow" x="-20%" y="-20%" width="140%" height="140%">
      <feDropShadow dx="0" dy="14" stdDeviation="18" flood-color="#0f172a" flood-opacity="0.22"/>
    </filter>
  </defs>
  <rect x="42" y="42" width="428" height="428" rx="108" fill="url(#bg)"/>
  <g filter="url(#shadow)">
    <rect x="112" y="126" width="288" height="260" rx="40" fill="#f8fafc"/>
    <rect x="112" y="126" width="288" height="74" rx="40" fill="#0f172a"/>
    <path d="M112 166h288v52H112z" fill="#0f172a"/>
    <circle cx="174" cy="162" r="14" fill="#fbbf24"/>
    <circle cx="338" cy="162" r="14" fill="#fbbf24"/>
  </g>
  <g aria-hidden="true">
    <circle cx="162" cy="244" r="10" fill="#93c5fd"/>
    <circle cx="208" cy="244" r="10" fill="#93c5fd"/>
    <circle cx="254" cy="244" r="10" fill="#93c5fd"/>
    <circle cx="300" cy="244" r="10" fill="#93c5fd"/>
    <circle cx="346" cy="244" r="10" fill="#93c5fd"/>
    <circle cx="184" cy="292" r="10" fill="#93c5fd"/>
    <circle cx="230" cy="292" r="10" fill="#93c5fd"/>
  </g>
  <path d="M179 349c31-1 56-15 72-42 13-22 12-49-6-67 30-5 55 4 71 25 11 15 15 32 13 51l48 48c8 8 8 21 0 29s-21 8-29 0l-39-39c-21 25-50 38-87 39h-42c-13 0-24-10-24-23 0-12 10-22 23-22z" fill="url(#warm)"/>
  <path d="M257 234c14-29 36-47 66-53 9-2 16 8 11 16l-26 45c-5 9-17 12-26 7z" fill="#f59e0b"/>
  <path d="M216 335c-28 13-45 34-52 63-2 10 9 18 17 12l51-36z" fill="#ea580c"/>
  <circle cx="309" cy="223" r="7" fill="#0f172a"/>
  <path d="M333 229c15-5 27-3 37 6" fill="none" stroke="#f8fafc" stroke-width="9" stroke-linecap="round"/>
</svg>
