<svg xmlns="http://www.w3.org/2000/svg" width="1280" height="640" viewBox="0 0 1280 640" role="img" aria-labelledby="title desc">
  <title id="title">Weekaroo social preview</title>
  <desc id="desc">Weekaroo logo and positioning line for GitHub and social launch posts.</desc>
  <defs>
    <linearGradient id="hero" x1="0" y1="0" x2="1280" y2="640" gradientUnits="userSpaceOnUse">
      <stop offset="0" stop-color="#eff6ff"/>
      <stop offset="0.52" stop-color="#dbeafe"/>
      <stop offset="1" stop-color="#ede9fe"/>
    </linearGradient>
    <linearGradient id="mark" x1="82" y1="92" x2="428" y2="438" gradientUnits="userSpaceOnUse">
      <stop offset="0" stop-color="#38bdf8"/>
      <stop offset="0.52" stop-color="#2563eb"/>
      <stop offset="1" stop-color="#7c3aed"/>
    </linearGradient>
    <linearGradient id="warm" x1="184" y1="168" x2="350" y2="378" gradientUnits="userSpaceOnUse">
      <stop offset="0" stop-color="#fbbf24"/>
      <stop offset="1" stop-color="#f97316"/>
    </linearGradient>
    <filter id="shadow" x="-20%" y="-20%" width="140%" height="140%">
      <feDropShadow dx="0" dy="18" stdDeviation="22" flood-color="#0f172a" flood-opacity="0.20"/>
    </filter>
  </defs>
  <rect width="1280" height="640" fill="url(#hero)"/>
  <circle cx="1130" cy="66" r="190" fill="#bfdbfe" opacity="0.55"/>
  <circle cx="1020" cy="604" r="260" fill="#ddd6fe" opacity="0.75"/>
  <g transform="translate(110 102)">
    <rect width="348" height="348" rx="84" fill="url(#mark)"/>
    <g filter="url(#shadow)">
      <rect x="78" y="86" width="206" height="194" rx="32" fill="#f8fafc"/>
      <rect x="78" y="86" width="206" height="60" rx="32" fill="#0f172a"/>
      <path d="M78 120h206v44H78z" fill="#0f172a"/>
      <circle cx="124" cy="114" r="10" fill="#fbbf24"/>
      <circle cx="238" cy="114" r="10" fill="#fbbf24"/>
    </g>
    <g>
      <circle cx="116" cy="178" r="7" fill="#93c5fd"/>
      <circle cx="150" cy="178" r="7" fill="#93c5fd"/>
      <circle cx="184" cy="178" r="7" fill="#93c5fd"/>
      <circle cx="218" cy="178" r="7" fill="#93c5fd"/>
      <circle cx="252" cy="178" r="7" fill="#93c5fd"/>
      <circle cx="134" cy="212" r="7" fill="#93c5fd"/>
      <circle cx="168" cy="212" r="7" fill="#93c5fd"/>
    </g>
    <path d="M128 256c27-1 48-13 62-36 11-18 10-42-6-56 26-4 47 3 61 21 10 13 13 27 11 44l42 42c7 7 7 18 0 25s-18 7-25 0l-34-34c-18 22-43 33-75 34h-36c-11 0-20-9-20-20 0-10 9-19 20-19z" fill="url(#warm)"/>
    <path d="M194 156c12-24 30-40 55-45 7-1 14 7 10 14l-22 37c-4 8-14 10-21 6z" fill="#f59e0b"/>
    <path d="M160 246c-24 11-38 29-44 54-2 9 8 16 15 10l44-31z" fill="#ea580c"/>
    <circle cx="238" cy="146" r="6" fill="#0f172a"/>
  </g>
  <text x="526" y="236" font-family="Inter, ui-sans-serif, system-ui, -apple-system, BlinkMacSystemFont, 'Segoe UI', sans-serif" font-size="104" font-weight="850" letter-spacing="-5" fill="#0f172a">Weekaroo</text>
  <text x="532" y="306" font-family="Inter, ui-sans-serif, system-ui, -apple-system, BlinkMacSystemFont, 'Segoe UI', sans-serif" font-size="38" font-weight="700" fill="#334155">A local-first wall dashboard</text>
  <text x="532" y="360" font-family="Inter, ui-sans-serif, system-ui, -apple-system, BlinkMacSystemFont, 'Segoe UI', sans-serif" font-size="38" font-weight="700" fill="#334155">for the week ahead</text>
  <g transform="translate(532 424)">
    <rect width="170" height="54" rx="27" fill="#ffffff" stroke="#bfdbfe" stroke-width="2"/>
    <text x="24" y="36" font-family="Inter, ui-sans-serif, system-ui, sans-serif" font-size="21" font-weight="800" fill="#2563eb">ICS calendars</text>
    <rect x="188" width="158" height="54" rx="27" fill="#ffffff" stroke="#bfdbfe" stroke-width="2"/>
    <text x="212" y="36" font-family="Inter, ui-sans-serif, system-ui, sans-serif" font-size="21" font-weight="800" fill="#2563eb">Weather</text>
    <rect x="364" width="182" height="54" rx="27" fill="#ffffff" stroke="#bfdbfe" stroke-width="2"/>
    <text x="388" y="36" font-family="Inter, ui-sans-serif, system-ui, sans-serif" font-size="21" font-weight="800" fill="#2563eb">Notes + timers</text>
  </g>
</svg>
